# xmcd
#
# Track frame offsets:
#	151
#	20553
#	39363
#	59961
#	83007
#	110328
#	131283
#	154436
#	165378
#	186456
#	203613
#	223826
#	244725
#	262208
#	281390
#	304873
#
# Disc length: 4348 seconds
#
# Revision: 1
# Processed by: cddbd v1.5.2PL0 Copyright (c) Steve Scherf et al.
# Submitted via: audiograbber 1.80
#
DISCID=e910fa10
DTITLE=Axel Rudi Pell - The Ballads
DYEAR=1900
DGENRE=
TTITLE0=You want love
TTITLE1=Forever young
TTITLE2=Dreams of passion
TTITLE3=Your live
TTITLE4=Tearin`out my heart
TTITLE5=When a blind man cries
TTITLE6=Broken heart
TTITLE7=Open door`s pt. 2 the yourney
TTITLE8=Falling thears
TTITLE9=Broken heart guitarr version
TTITLE10=bonus
TTITLE11=bonus
TTITLE12=bonus
TTITLE13=bonus
TTITLE14=bonus
TTITLE15=bonus
EXTD=
EXTT0=
EXTT1=
EXTT2=
EXTT3=
EXTT4=
EXTT5=
EXTT6=
EXTT7=
EXTT8=
EXTT9=
EXTT10=
EXTT11=
EXTT12=
EXTT13=
EXTT14=
EXTT15=
PLAYORDER=
